solid OpenSCAD_Model
  facet normal -1 0 0
    outer loop
      vertex 0.8 3.9 1.6
      vertex 0.8 10.5 8.6
      vertex 0.8 10.5 1.6
    endloop
  endfacet
  facet normal -1 0 0
    outer loop
      vertex 0.8 3.9 9.6
      vertex 0.8 10.5 8.6
      vertex 0.8 3.9 1.6
    endloop
  endfacet
  facet normal -1 0 0
    outer loop
      vertex 0.8 10.5 8.6
      vertex 0.8 3.9 9.6
      vertex 0.8 9.5 9.6
    endloop
  endfacet
  facet normal 0 0 1
    outer loop
      vertex 2.5 9.5 9.6
      vertex 0.8 9.5 9.6
      vertex 2.5 5.356 9.6
    endloop
  endfacet
  facet normal 0 0 1
    outer loop
      vertex 10.78 5.356 9.6
      vertex 12.48 9.5 9.6
      vertex 10.78 9.5 9.6
    endloop
  endfacet
  facet normal 0 0 1
    outer loop
      vertex 12.48 9.5 9.6
      vertex 10.78 5.356 9.6
      vertex 12.48 3.9 9.6
    endloop
  endfacet
  facet normal 0 0 1
    outer loop
      vertex 10.78 5.356 9.6
      vertex 9.69 3.9 9.6
      vertex 12.48 3.9 9.6
    endloop
  endfacet
  facet normal 0 0 1
    outer loop
      vertex 9.69 3.9 9.6
      vertex 3.59 3.9 9.6
      vertex 9.69 2.3 9.6
    endloop
  endfacet
  facet normal 0 0 1
    outer loop
      vertex 10.78 5.356 9.6
      vertex 3.59 3.9 9.6
      vertex 9.69 3.9 9.6
    endloop
  endfacet
  facet normal -0 0 1
    outer loop
      vertex 2.5 5.356 9.6
      vertex 3.59 3.9 9.6
      vertex 10.78 5.356 9.6
    endloop
  endfacet
  facet normal 0 0 1
    outer loop
      vertex 2.5 5.356 9.6
      vertex 0.8 3.9 9.6
      vertex 3.59 3.9 9.6
    endloop
  endfacet
  facet normal 0 0 1
    outer loop
      vertex 0.8 3.9 9.6
      vertex 2.5 5.356 9.6
      vertex 0.8 9.5 9.6
    endloop
  endfacet
  facet normal 0 0 1
    outer loop
      vertex 9.69 2.3 9.6
      vertex 3.59 3.9 9.6
      vertex 3.59 2.3 9.6
    endloop
  endfacet
  facet normal 1 -0 0
    outer loop
      vertex 12.48 3.9 9.6
      vertex 12.48 10.5 8.6
      vertex 12.48 9.5 9.6
    endloop
  endfacet
  facet normal 1 0 0
    outer loop
      vertex 12.48 10.5 8.6
      vertex 12.48 3.9 9.6
      vertex 12.48 3.9 1.6
    endloop
  endfacet
  facet normal 1 0 0
    outer loop
      vertex 12.48 10.5 8.6
      vertex 12.48 3.9 1.6
      vertex 12.48 10.5 1.6
    endloop
  endfacet
  facet normal 0 1 0
    outer loop
      vertex 12.48 10.5 8.6
      vertex 10.78 10.5 3.2
      vertex 10.78 10.5 8.6
    endloop
  endfacet
  facet normal 0 1 0
    outer loop
      vertex 10.78 10.5 3.2
      vertex 12.48 10.5 1.6
      vertex 2.5 10.5 3.2
    endloop
  endfacet
  facet normal 0 1 -0
    outer loop
      vertex 12.48 10.5 1.6
      vertex 10.78 10.5 3.2
      vertex 12.48 10.5 8.6
    endloop
  endfacet
  facet normal 0 1 -0
    outer loop
      vertex 2.5 10.5 3.2
      vertex 0.8 10.5 8.6
      vertex 2.5 10.5 8.6
    endloop
  endfacet
  facet normal 0 1 0
    outer loop
      vertex 2.5 10.5 3.2
      vertex 0.8 10.5 1.6
      vertex 0.8 10.5 8.6
    endloop
  endfacet
  facet normal 0 1 0
    outer loop
      vertex 0.8 10.5 1.6
      vertex 2.5 10.5 3.2
      vertex 12.48 10.5 1.6
    endloop
  endfacet
  facet normal 0 0 -1
    outer loop
      vertex 8.69 0.5 1.6
      vertex 4.59 0.5 1.6
      vertex 8.69 2.3 1.6
    endloop
  endfacet
  facet normal 0 0 -1
    outer loop
      vertex 9.69 2.3 1.6
      vertex 8.69 2.3 1.6
      vertex 9.69 3.9 1.6
    endloop
  endfacet
  facet normal 0 0 -1
    outer loop
      vertex 12.48 3.9 1.6
      vertex 10.78 7.49959 1.6
      vertex 12.48 10.5 1.6
    endloop
  endfacet
  facet normal 0 0 -1
    outer loop
      vertex 9.69 3.9 1.6
      vertex 10.78 7.49959 1.6
      vertex 12.48 3.9 1.6
    endloop
  endfacet
  facet normal 0 0 -1
    outer loop
      vertex 3.59 3.9 1.6
      vertex 9.69 3.9 1.6
      vertex 8.69 2.3 1.6
    endloop
  endfacet
  facet normal 0 0 -1
    outer loop
      vertex 4.59 2.3 1.6
      vertex 8.69 2.3 1.6
      vertex 4.59 0.5 1.6
    endloop
  endfacet
  facet normal 0 0 -1
    outer loop
      vertex 3.59 3.9 1.6
      vertex 8.69 2.3 1.6
      vertex 4.59 2.3 1.6
    endloop
  endfacet
  facet normal 0 0 -1
    outer loop
      vertex 3.59 3.9 1.6
      vertex 4.59 2.3 1.6
      vertex 3.59 2.3 1.6
    endloop
  endfacet
  facet normal 0 0 -1
    outer loop
      vertex 9.69 3.9 1.6
      vertex 3.59 3.9 1.6
      vertex 10.78 7.49959 1.6
    endloop
  endfacet
  facet normal 0 0 -1
    outer loop
      vertex 3.59 3.9 1.6
      vertex 2.5 7.49959 1.6
      vertex 10.78 7.49959 1.6
    endloop
  endfacet
  facet normal 0 0 -1
    outer loop
      vertex 0.8 10.5 1.6
      vertex 2.5 7.49959 1.6
      vertex 0.8 3.9 1.6
    endloop
  endfacet
  facet normal 0 0 -1
    outer loop
      vertex 0.8 3.9 1.6
      vertex 2.5 7.49959 1.6
      vertex 3.59 3.9 1.6
    endloop
  endfacet
  facet normal 0 0 -1
    outer loop
      vertex 10.78 8.9 1.6
      vertex 12.48 10.5 1.6
      vertex 10.78 7.49959 1.6
    endloop
  endfacet
  facet normal 0 0 -1
    outer loop
      vertex 2.5 8.9 1.6
      vertex 12.48 10.5 1.6
      vertex 10.78 8.9 1.6
    endloop
  endfacet
  facet normal 0 0 -1
    outer loop
      vertex 2.5 8.9 1.6
      vertex 0.8 10.5 1.6
      vertex 12.48 10.5 1.6
    endloop
  endfacet
  facet normal 0 0 -1
    outer loop
      vertex 2.5 7.49959 1.6
      vertex 0.8 10.5 1.6
      vertex 2.5 8.9 1.6
    endloop
  endfacet
  facet normal 0 -1 0
    outer loop
      vertex 4.59 0.5 1.6
      vertex 8.69 0.5 5.6
      vertex 4.59 0.5 5.6
    endloop
  endfacet
  facet normal 0 -1 -0
    outer loop
      vertex 8.69 0.5 5.6
      vertex 4.59 0.5 1.6
      vertex 8.69 0.5 1.6
    endloop
  endfacet
  facet normal -1 0 0
    outer loop
      vertex 3.59 2.3 1.6
      vertex 3.59 3.9 9.6
      vertex 3.59 3.9 1.6
    endloop
  endfacet
  facet normal -1 -0 0
    outer loop
      vertex 3.59 3.9 9.6
      vertex 3.59 2.3 1.6
      vertex 3.59 2.3 9.6
    endloop
  endfacet
  facet normal 0 -1 0
    outer loop
      vertex 3.59 2.3 9.6
      vertex 4.59 2.3 5.6
      vertex 9.69 2.3 9.6
    endloop
  endfacet
  facet normal 0 -1 0
    outer loop
      vertex 3.59 2.3 1.6
      vertex 4.59 2.3 5.6
      vertex 3.59 2.3 9.6
    endloop
  endfacet
  facet normal 0 -1 -0
    outer loop
      vertex 4.59 2.3 5.6
      vertex 3.59 2.3 1.6
      vertex 4.59 2.3 1.6
    endloop
  endfacet
  facet normal 0 -1 0
    outer loop
      vertex 8.69 2.3 5.6
      vertex 9.69 2.3 9.6
      vertex 4.59 2.3 5.6
    endloop
  endfacet
  facet normal 0 -1 0
    outer loop
      vertex 9.69 2.3 1.6
      vertex 8.69 2.3 5.6
      vertex 8.69 2.3 1.6
    endloop
  endfacet
  facet normal 0 -1 0
    outer loop
      vertex 8.69 2.3 5.6
      vertex 9.69 2.3 1.6
      vertex 9.69 2.3 9.6
    endloop
  endfacet
  facet normal 0 -1 0
    outer loop
      vertex 0.8 3.9 1.6
      vertex 3.59 3.9 9.6
      vertex 0.8 3.9 9.6
    endloop
  endfacet
  facet normal 0 -1 -0
    outer loop
      vertex 3.59 3.9 9.6
      vertex 0.8 3.9 1.6
      vertex 3.59 3.9 1.6
    endloop
  endfacet
  facet normal 1 -0 0
    outer loop
      vertex 9.69 2.3 9.6
      vertex 9.69 3.9 1.6
      vertex 9.69 3.9 9.6
    endloop
  endfacet
  facet normal 1 0 0
    outer loop
      vertex 9.69 3.9 1.6
      vertex 9.69 2.3 9.6
      vertex 9.69 2.3 1.6
    endloop
  endfacet
  facet normal 0 -1 0
    outer loop
      vertex 9.69 3.9 1.6
      vertex 12.48 3.9 9.6
      vertex 9.69 3.9 9.6
    endloop
  endfacet
  facet normal 0 -1 -0
    outer loop
      vertex 12.48 3.9 9.6
      vertex 9.69 3.9 1.6
      vertex 12.48 3.9 1.6
    endloop
  endfacet
  facet normal -1 0 0
    outer loop
      vertex 4.59 0.5 1.6
      vertex 4.59 2.3 5.6
      vertex 4.59 2.3 1.6
    endloop
  endfacet
  facet normal -1 -0 0
    outer loop
      vertex 4.59 2.3 5.6
      vertex 4.59 0.5 1.6
      vertex 4.59 0.5 5.6
    endloop
  endfacet
  facet normal 1 -0 0
    outer loop
      vertex 8.69 0.5 5.6
      vertex 8.69 2.3 1.6
      vertex 8.69 2.3 5.6
    endloop
  endfacet
  facet normal 1 0 0
    outer loop
      vertex 8.69 2.3 1.6
      vertex 8.69 0.5 5.6
      vertex 8.69 0.5 1.6
    endloop
  endfacet
  facet normal -0 0 1
    outer loop
      vertex 4.59 2.3 5.6
      vertex 8.69 0.5 5.6
      vertex 8.69 2.3 5.6
    endloop
  endfacet
  facet normal 0 0 1
    outer loop
      vertex 8.69 0.5 5.6
      vertex 4.59 2.3 5.6
      vertex 4.59 0.5 5.6
    endloop
  endfacet
  facet normal 0 0.707107 0.707107
    outer loop
      vertex 2.5 10.5 8.6
      vertex 0.8 9.5 9.6
      vertex 2.5 9.5 9.6
    endloop
  endfacet
  facet normal 0 0.707107 0.707107
    outer loop
      vertex 0.8 9.5 9.6
      vertex 2.5 10.5 8.6
      vertex 0.8 10.5 8.6
    endloop
  endfacet
  facet normal 0 0.707107 0.707107
    outer loop
      vertex 12.48 10.5 8.6
      vertex 10.78 9.5 9.6
      vertex 12.48 9.5 9.6
    endloop
  endfacet
  facet normal 0 0.707107 0.707107
    outer loop
      vertex 10.78 9.5 9.6
      vertex 12.48 10.5 8.6
      vertex 10.78 10.5 8.6
    endloop
  endfacet
  facet normal 1 0 0
    outer loop
      vertex 2.5 8.9 3.2
      vertex 2.5 10.5 8.6
      vertex 2.5 9.5 9.6
    endloop
  endfacet
  facet normal 1 0 0
    outer loop
      vertex 2.5 10.5 8.6
      vertex 2.5 8.9 3.2
      vertex 2.5 10.5 3.2
    endloop
  endfacet
  facet normal 1 0 0
    outer loop
      vertex 2.5 8.9 3.2
      vertex 2.5 7.49959 1.6
      vertex 2.5 8.9 1.6
    endloop
  endfacet
  facet normal 1 -0 0
    outer loop
      vertex 2.5 5.356 9.6
      vertex 2.5 8.9 3.2
      vertex 2.5 9.5 9.6
    endloop
  endfacet
  facet normal 1 0 0
    outer loop
      vertex 2.5 8.9 3.2
      vertex 2.5 5.356 9.6
      vertex 2.5 7.49959 1.6
    endloop
  endfacet
  facet normal -1 0 0
    outer loop
      vertex 10.78 8.9 1.6
      vertex 10.78 7.49959 1.6
      vertex 10.78 8.9 3.2
    endloop
  endfacet
  facet normal -1 0 0
    outer loop
      vertex 10.78 8.9 3.2
      vertex 10.78 10.5 8.6
      vertex 10.78 10.5 3.2
    endloop
  endfacet
  facet normal -1 -0 0
    outer loop
      vertex 10.78 10.5 8.6
      vertex 10.78 8.9 3.2
      vertex 10.78 9.5 9.6
    endloop
  endfacet
  facet normal -1 0 0
    outer loop
      vertex 10.78 5.356 9.6
      vertex 10.78 8.9 3.2
      vertex 10.78 7.49959 1.6
    endloop
  endfacet
  facet normal -1 0 0
    outer loop
      vertex 10.78 8.9 3.2
      vertex 10.78 5.356 9.6
      vertex 10.78 9.5 9.6
    endloop
  endfacet
  facet normal 0 0.965926 0.258819
    outer loop
      vertex 10.78 7.49959 1.6
      vertex 2.5 5.356 9.6
      vertex 10.78 5.356 9.6
    endloop
  endfacet
  facet normal 0 0.965926 0.258819
    outer loop
      vertex 2.5 5.356 9.6
      vertex 10.78 7.49959 1.6
      vertex 2.5 7.49959 1.6
    endloop
  endfacet
  facet normal -0 0 1
    outer loop
      vertex 2.5 10.5 3.2
      vertex 10.78 8.9 3.2
      vertex 10.78 10.5 3.2
    endloop
  endfacet
  facet normal 0 0 1
    outer loop
      vertex 10.78 8.9 3.2
      vertex 2.5 10.5 3.2
      vertex 2.5 8.9 3.2
    endloop
  endfacet
  facet normal 0 -1 0
    outer loop
      vertex 2.5 8.9 1.6
      vertex 10.78 8.9 3.2
      vertex 2.5 8.9 3.2
    endloop
  endfacet
  facet normal 0 -1 -0
    outer loop
      vertex 10.78 8.9 3.2
      vertex 2.5 8.9 1.6
      vertex 10.78 8.9 1.6
    endloop
  endfacet
  facet normal 0 0 -1
    outer loop
      vertex 12.3845 0.00547791 0
      vertex 13.28 1 0
      vertex 13.2581 0.792088 0
    endloop
  endfacet
  facet normal -0 0 -1
    outer loop
      vertex 13.28 1 0
      vertex 12.3845 0.00547791 0
      vertex 13.28 10 0
    endloop
  endfacet
  facet normal 0 0 -1
    outer loop
      vertex 12.3845 0.00547791 0
      vertex 13.2581 0.792088 0
      vertex 13.1935 0.593263 0
    endloop
  endfacet
  facet normal 0 0 -1
    outer loop
      vertex 12.3845 10.9945 0
      vertex 13.28 10 0
      vertex 12.3845 0.00547791 0
    endloop
  endfacet
  facet normal 0 0 -1
    outer loop
      vertex 12.3845 0.00547791 0
      vertex 13.1935 0.593263 0
      vertex 13.089 0.412214 0
    endloop
  endfacet
  facet normal 0 0 -1
    outer loop
      vertex 13.28 10 0
      vertex 12.3845 10.9945 0
      vertex 13.2581 10.2079 0
    endloop
  endfacet
  facet normal 0 0 -1
    outer loop
      vertex 12.3845 0.00547791 0
      vertex 13.089 0.412214 0
      vertex 12.9491 0.256855 0
    endloop
  endfacet
  facet normal 0 0 -1
    outer loop
      vertex 13.2581 10.2079 0
      vertex 12.3845 10.9945 0
      vertex 13.1935 10.4067 0
    endloop
  endfacet
  facet normal 0 0 -1
    outer loop
      vertex 12.3845 0.00547791 0
      vertex 12.9491 0.256855 0
      vertex 12.78 0.133974 0
    endloop
  endfacet
  facet normal 0 0 -1
    outer loop
      vertex 13.1935 10.4067 0
      vertex 12.3845 10.9945 0
      vertex 13.089 10.5878 0
    endloop
  endfacet
  facet normal 0 0 -1
    outer loop
      vertex 12.3845 0.00547791 0
      vertex 12.78 0.133974 0
      vertex 12.589 0.0489426 0
    endloop
  endfacet
  facet normal 0 0 -1
    outer loop
      vertex 13.089 10.5878 0
      vertex 12.3845 10.9945 0
      vertex 12.9491 10.7431 0
    endloop
  endfacet
  facet normal 0 0 -1
    outer loop
      vertex 12.9491 10.7431 0
      vertex 12.3845 10.9945 0
      vertex 12.78 10.866 0
    endloop
  endfacet
  facet normal 0 0 -1
    outer loop
      vertex 12.78 10.866 0
      vertex 12.3845 10.9945 0
      vertex 12.589 10.9511 0
    endloop
  endfacet
  facet normal 0 0 -1
    outer loop
      vertex 0.895471 0.00547791 0
      vertex 12.3845 10.9945 0
      vertex 12.3845 0.00547791 0
    endloop
  endfacet
  facet normal 0 0 -1
    outer loop
      vertex 0.895471 0.00547791 0
      vertex 0.895471 10.9945 0
      vertex 12.3845 10.9945 0
    endloop
  endfacet
  facet normal 0 0 -1
    outer loop
      vertex 0 1 0
      vertex 0.895471 0.00547791 0
      vertex 0.690983 0.0489426 0
    endloop
  endfacet
  facet normal 0 0 -1
    outer loop
      vertex 0.895471 0.00547791 0
      vertex 0 1 0
      vertex 0.895471 10.9945 0
    endloop
  endfacet
  facet normal 0 0 -1
    outer loop
      vertex 0.895471 10.9945 0
      vertex 0 10 0
      vertex 0.690983 10.9511 0
    endloop
  endfacet
  facet normal 0 0 -1
    outer loop
      vertex 0 1 0
      vertex 0.690983 0.0489426 0
      vertex 0.499999 0.133974 0
    endloop
  endfacet
  facet normal 0 0 -1
    outer loop
      vertex 0 1 0
      vertex 0.499999 0.133974 0
      vertex 0.330869 0.256855 0
    endloop
  endfacet
  facet normal 0 0 -1
    outer loop
      vertex 0.895471 10.9945 0
      vertex 0 1 0
      vertex 0 10 0
    endloop
  endfacet
  facet normal 0 0 -1
    outer loop
      vertex 0 1 0
      vertex 0.330869 0.256855 0
      vertex 0.190983 0.412214 0
    endloop
  endfacet
  facet normal 0 0 -1
    outer loop
      vertex 0.690983 10.9511 0
      vertex 0 10 0
      vertex 0.5 10.866 0
    endloop
  endfacet
  facet normal 0 0 -1
    outer loop
      vertex 0 1 0
      vertex 0.190983 0.412214 0
      vertex 0.0864544 0.593263 0
    endloop
  endfacet
  facet normal 0 0 -1
    outer loop
      vertex 0.5 10.866 0
      vertex 0 10 0
      vertex 0.330869 10.7431 0
    endloop
  endfacet
  facet normal 0 0 -1
    outer loop
      vertex 0 1 0
      vertex 0.0864544 0.593263 0
      vertex 0.0218515 0.792088 0
    endloop
  endfacet
  facet normal 0 0 -1
    outer loop
      vertex 0.330869 10.7431 0
      vertex 0 10 0
      vertex 0.190983 10.5878 0
    endloop
  endfacet
  facet normal 0 0 -1
    outer loop
      vertex 0.190983 10.5878 0
      vertex 0 10 0
      vertex 0.0864544 10.4067 0
    endloop
  endfacet
  facet normal 0 0 -1
    outer loop
      vertex 0.0864544 10.4067 0
      vertex 0 10 0
      vertex 0.0218515 10.2079 0
    endloop
  endfacet
  facet normal -0.951055 -0.30902 0
    outer loop
      vertex 0.0864544 0.593263 0
      vertex 0.0218515 0.792088 1.6
      vertex 0.0218515 0.792088 0
    endloop
  endfacet
  facet normal -0.951055 -0.30902 0
    outer loop
      vertex 0.0218515 0.792088 1.6
      vertex 0.0864544 0.593263 0
      vertex 0.0864544 0.593263 1.6
    endloop
  endfacet
  facet normal -1 0 0
    outer loop
      vertex 0 1 0
      vertex 0 10 1.6
      vertex 0 10 0
    endloop
  endfacet
  facet normal -1 -0 0
    outer loop
      vertex 0 10 1.6
      vertex 0 1 0
      vertex 0 1 1.6
    endloop
  endfacet
  facet normal 0.994522 0.104529 0
    outer loop
      vertex 13.28 10 1.6
      vertex 13.2581 10.2079 0
      vertex 13.2581 10.2079 1.6
    endloop
  endfacet
  facet normal 0.994522 0.104529 0
    outer loop
      vertex 13.2581 10.2079 0
      vertex 13.28 10 1.6
      vertex 13.28 10 0
    endloop
  endfacet
  facet normal -0.994522 -0.104524 0
    outer loop
      vertex 0.0218515 0.792088 0
      vertex 0 1 1.6
      vertex 0 1 0
    endloop
  endfacet
  facet normal -0.994522 -0.104524 0
    outer loop
      vertex 0 1 1.6
      vertex 0.0218515 0.792088 0
      vertex 0.0218515 0.792088 1.6
    endloop
  endfacet
  facet normal 0.587787 -0.809016 0
    outer loop
      vertex 12.78 0.133974 0
      vertex 12.9491 0.256855 1.6
      vertex 12.78 0.133974 1.6
    endloop
  endfacet
  facet normal 0.587787 -0.809016 0
    outer loop
      vertex 12.9491 0.256855 1.6
      vertex 12.78 0.133974 0
      vertex 12.9491 0.256855 0
    endloop
  endfacet
  facet normal -0.406739 0.913545 0
    outer loop
      vertex 0.690983 10.9511 0
      vertex 0.5 10.866 1.6
      vertex 0.690983 10.9511 1.6
    endloop
  endfacet
  facet normal -0.406739 0.913545 0
    outer loop
      vertex 0.5 10.866 1.6
      vertex 0.690983 10.9511 0
      vertex 0.5 10.866 0
    endloop
  endfacet
  facet normal 0 0 1
    outer loop
      vertex 12.3845 10.9945 1.6
      vertex 13.28 10 1.6
      vertex 13.2581 10.2079 1.6
    endloop
  endfacet
  facet normal 0 0 1
    outer loop
      vertex 13.28 10 1.6
      vertex 12.3845 10.9945 1.6
      vertex 13.28 1 1.6
    endloop
  endfacet
  facet normal 0 0 1
    outer loop
      vertex 12.3845 10.9945 1.6
      vertex 13.2581 10.2079 1.6
      vertex 13.1935 10.4067 1.6
    endloop
  endfacet
  facet normal 0 0 1
    outer loop
      vertex 12.3845 0.00547791 1.6
      vertex 13.28 1 1.6
      vertex 12.3845 10.9945 1.6
    endloop
  endfacet
  facet normal 0 0 1
    outer loop
      vertex 12.3845 10.9945 1.6
      vertex 13.1935 10.4067 1.6
      vertex 13.089 10.5878 1.6
    endloop
  endfacet
  facet normal 0 0 1
    outer loop
      vertex 13.28 1 1.6
      vertex 12.3845 0.00547791 1.6
      vertex 13.2581 0.792088 1.6
    endloop
  endfacet
  facet normal 0 0 1
    outer loop
      vertex 12.3845 10.9945 1.6
      vertex 13.089 10.5878 1.6
      vertex 12.9491 10.7431 1.6
    endloop
  endfacet
  facet normal 0 0 1
    outer loop
      vertex 13.2581 0.792088 1.6
      vertex 12.3845 0.00547791 1.6
      vertex 13.1935 0.593263 1.6
    endloop
  endfacet
  facet normal 0 0 1
    outer loop
      vertex 12.3845 10.9945 1.6
      vertex 12.9491 10.7431 1.6
      vertex 12.78 10.866 1.6
    endloop
  endfacet
  facet normal 0 0 1
    outer loop
      vertex 13.1935 0.593263 1.6
      vertex 12.3845 0.00547791 1.6
      vertex 13.089 0.412214 1.6
    endloop
  endfacet
  facet normal 0 0 1
    outer loop
      vertex 12.3845 10.9945 1.6
      vertex 12.78 10.866 1.6
      vertex 12.589 10.9511 1.6
    endloop
  endfacet
  facet normal 0 0 1
    outer loop
      vertex 13.089 0.412214 1.6
      vertex 12.3845 0.00547791 1.6
      vertex 12.9491 0.256855 1.6
    endloop
  endfacet
  facet normal 0 0 1
    outer loop
      vertex 12.9491 0.256855 1.6
      vertex 12.3845 0.00547791 1.6
      vertex 12.78 0.133974 1.6
    endloop
  endfacet
  facet normal 0 0 1
    outer loop
      vertex 12.78 0.133974 1.6
      vertex 12.3845 0.00547791 1.6
      vertex 12.589 0.0489426 1.6
    endloop
  endfacet
  facet normal -0 0 1
    outer loop
      vertex 0.895471 10.9945 1.6
      vertex 12.3845 0.00547791 1.6
      vertex 12.3845 10.9945 1.6
    endloop
  endfacet
  facet normal 0 0 1
    outer loop
      vertex 0.895471 10.9945 1.6
      vertex 0.895471 0.00547791 1.6
      vertex 12.3845 0.00547791 1.6
    endloop
  endfacet
  facet normal 0 0 1
    outer loop
      vertex 0 10 1.6
      vertex 0.895471 10.9945 1.6
      vertex 0.690983 10.9511 1.6
    endloop
  endfacet
  facet normal 0 0 1
    outer loop
      vertex 0.895471 10.9945 1.6
      vertex 0 10 1.6
      vertex 0.895471 0.00547791 1.6
    endloop
  endfacet
  facet normal 0 0 1
    outer loop
      vertex 0 10 1.6
      vertex 0.690983 10.9511 1.6
      vertex 0.5 10.866 1.6
    endloop
  endfacet
  facet normal -0 0 1
    outer loop
      vertex 0 1 1.6
      vertex 0.895471 0.00547791 1.6
      vertex 0 10 1.6
    endloop
  endfacet
  facet normal 0 0 1
    outer loop
      vertex 0 10 1.6
      vertex 0.5 10.866 1.6
      vertex 0.330869 10.7431 1.6
    endloop
  endfacet
  facet normal 0 0 1
    outer loop
      vertex 0.895471 0.00547791 1.6
      vertex 0 1 1.6
      vertex 0.690983 0.0489426 1.6
    endloop
  endfacet
  facet normal 0 0 1
    outer loop
      vertex 0 10 1.6
      vertex 0.330869 10.7431 1.6
      vertex 0.190983 10.5878 1.6
    endloop
  endfacet
  facet normal 0 0 1
    outer loop
      vertex 0.690983 0.0489426 1.6
      vertex 0 1 1.6
      vertex 0.499999 0.133974 1.6
    endloop
  endfacet
  facet normal 0 0 1
    outer loop
      vertex 0 10 1.6
      vertex 0.190983 10.5878 1.6
      vertex 0.0864544 10.4067 1.6
    endloop
  endfacet
  facet normal 0 0 1
    outer loop
      vertex 0.499999 0.133974 1.6
      vertex 0 1 1.6
      vertex 0.330869 0.256855 1.6
    endloop
  endfacet
  facet normal 0 0 1
    outer loop
      vertex 0 10 1.6
      vertex 0.0864544 10.4067 1.6
      vertex 0.0218515 10.2079 1.6
    endloop
  endfacet
  facet normal 0 0 1
    outer loop
      vertex 0.330869 0.256855 1.6
      vertex 0 1 1.6
      vertex 0.190983 0.412214 1.6
    endloop
  endfacet
  facet normal 0 0 1
    outer loop
      vertex 0.190983 0.412214 1.6
      vertex 0 1 1.6
      vertex 0.0864544 0.593263 1.6
    endloop
  endfacet
  facet normal 0 0 1
    outer loop
      vertex 0.0864544 0.593263 1.6
      vertex 0 1 1.6
      vertex 0.0218515 0.792088 1.6
    endloop
  endfacet
  facet normal -0.207909 -0.978148 0
    outer loop
      vertex 0.690983 0.0489426 0
      vertex 0.895471 0.00547791 1.6
      vertex 0.690983 0.0489426 1.6
    endloop
  endfacet
  facet normal -0.207909 -0.978148 -0
    outer loop
      vertex 0.895471 0.00547791 1.6
      vertex 0.690983 0.0489426 0
      vertex 0.895471 0.00547791 0
    endloop
  endfacet
  facet normal 0.207908 0.978148 -0
    outer loop
      vertex 12.589 10.9511 0
      vertex 12.3845 10.9945 1.6
      vertex 12.589 10.9511 1.6
    endloop
  endfacet
  facet normal 0.207908 0.978148 0
    outer loop
      vertex 12.3845 10.9945 1.6
      vertex 12.589 10.9511 0
      vertex 12.3845 10.9945 0
    endloop
  endfacet
  facet normal 0 1 -0
    outer loop
      vertex 12.3845 10.9945 0
      vertex 0.895471 10.9945 1.6
      vertex 12.3845 10.9945 1.6
    endloop
  endfacet
  facet normal 0 1 0
    outer loop
      vertex 0.895471 10.9945 1.6
      vertex 12.3845 10.9945 0
      vertex 0.895471 10.9945 0
    endloop
  endfacet
  facet normal -0.994522 0.104524 0
    outer loop
      vertex 0 10 0
      vertex 0.0218515 10.2079 1.6
      vertex 0.0218515 10.2079 0
    endloop
  endfacet
  facet normal -0.994522 0.104524 0
    outer loop
      vertex 0.0218515 10.2079 1.6
      vertex 0 10 0
      vertex 0 10 1.6
    endloop
  endfacet
  facet normal 0.994522 -0.104529 0
    outer loop
      vertex 13.2581 0.792088 1.6
      vertex 13.28 1 0
      vertex 13.28 1 1.6
    endloop
  endfacet
  facet normal 0.994522 -0.104529 0
    outer loop
      vertex 13.28 1 0
      vertex 13.2581 0.792088 1.6
      vertex 13.2581 0.792088 0
    endloop
  endfacet
  facet normal 1 -0 0
    outer loop
      vertex 13.28 1 1.6
      vertex 13.28 10 0
      vertex 13.28 10 1.6
    endloop
  endfacet
  facet normal 1 0 0
    outer loop
      vertex 13.28 10 0
      vertex 13.28 1 1.6
      vertex 13.28 1 0
    endloop
  endfacet
  facet normal 0 -1 0
    outer loop
      vertex 0.895471 0.00547791 0
      vertex 12.3845 0.00547791 1.6
      vertex 0.895471 0.00547791 1.6
    endloop
  endfacet
  facet normal 0 -1 -0
    outer loop
      vertex 12.3845 0.00547791 1.6
      vertex 0.895471 0.00547791 0
      vertex 12.3845 0.00547791 0
    endloop
  endfacet
  facet normal 0.743143 0.669133 0
    outer loop
      vertex 13.089 10.5878 1.6
      vertex 12.9491 10.7431 0
      vertex 12.9491 10.7431 1.6
    endloop
  endfacet
  facet normal 0.743143 0.669133 0
    outer loop
      vertex 12.9491 10.7431 0
      vertex 13.089 10.5878 1.6
      vertex 13.089 10.5878 0
    endloop
  endfacet
  facet normal -0.207909 0.978148 0
    outer loop
      vertex 0.895471 10.9945 0
      vertex 0.690983 10.9511 1.6
      vertex 0.895471 10.9945 1.6
    endloop
  endfacet
  facet normal -0.207909 0.978148 0
    outer loop
      vertex 0.690983 10.9511 1.6
      vertex 0.895471 10.9945 0
      vertex 0.690983 10.9511 0
    endloop
  endfacet
  facet normal -0.866025 0.5 0
    outer loop
      vertex 0.0864544 10.4067 0
      vertex 0.190983 10.5878 1.6
      vertex 0.190983 10.5878 0
    endloop
  endfacet
  facet normal -0.866025 0.5 0
    outer loop
      vertex 0.190983 10.5878 1.6
      vertex 0.0864544 10.4067 0
      vertex 0.0864544 10.4067 1.6
    endloop
  endfacet
  facet normal -0.587785 0.809017 0
    outer loop
      vertex 0.5 10.866 0
      vertex 0.330869 10.7431 1.6
      vertex 0.5 10.866 1.6
    endloop
  endfacet
  facet normal -0.587785 0.809017 0
    outer loop
      vertex 0.330869 10.7431 1.6
      vertex 0.5 10.866 0
      vertex 0.330869 10.7431 0
    endloop
  endfacet
  facet normal -0.951055 0.30902 0
    outer loop
      vertex 0.0218515 10.2079 0
      vertex 0.0864544 10.4067 1.6
      vertex 0.0864544 10.4067 0
    endloop
  endfacet
  facet normal -0.951055 0.30902 0
    outer loop
      vertex 0.0864544 10.4067 1.6
      vertex 0.0218515 10.2079 0
      vertex 0.0218515 10.2079 1.6
    endloop
  endfacet
  facet normal 0.743143 -0.669133 0
    outer loop
      vertex 12.9491 0.256855 1.6
      vertex 13.089 0.412214 0
      vertex 13.089 0.412214 1.6
    endloop
  endfacet
  facet normal 0.743143 -0.669133 0
    outer loop
      vertex 13.089 0.412214 0
      vertex 12.9491 0.256855 1.6
      vertex 12.9491 0.256855 0
    endloop
  endfacet
  facet normal 0.951057 -0.309016 0
    outer loop
      vertex 13.1935 0.593263 1.6
      vertex 13.2581 0.792088 0
      vertex 13.2581 0.792088 1.6
    endloop
  endfacet
  facet normal 0.951057 -0.309016 0
    outer loop
      vertex 13.2581 0.792088 0
      vertex 13.1935 0.593263 1.6
      vertex 13.1935 0.593263 0
    endloop
  endfacet
  facet normal 0.207908 -0.978148 0
    outer loop
      vertex 12.3845 0.00547791 0
      vertex 12.589 0.0489426 1.6
      vertex 12.3845 0.00547791 1.6
    endloop
  endfacet
  facet normal 0.207908 -0.978148 0
    outer loop
      vertex 12.589 0.0489426 1.6
      vertex 12.3845 0.00547791 0
      vertex 12.589 0.0489426 0
    endloop
  endfacet
  facet normal -0.406737 -0.913545 0
    outer loop
      vertex 0.499999 0.133974 0
      vertex 0.690983 0.0489426 1.6
      vertex 0.499999 0.133974 1.6
    endloop
  endfacet
  facet normal -0.406737 -0.913545 -0
    outer loop
      vertex 0.690983 0.0489426 1.6
      vertex 0.499999 0.133974 0
      vertex 0.690983 0.0489426 0
    endloop
  endfacet
  facet normal -0.866025 -0.5 0
    outer loop
      vertex 0.190983 0.412214 0
      vertex 0.0864544 0.593263 1.6
      vertex 0.0864544 0.593263 0
    endloop
  endfacet
  facet normal -0.866025 -0.5 0
    outer loop
      vertex 0.0864544 0.593263 1.6
      vertex 0.190983 0.412214 0
      vertex 0.190983 0.412214 1.6
    endloop
  endfacet
  facet normal 0.866025 0.5 0
    outer loop
      vertex 13.1935 10.4067 1.6
      vertex 13.089 10.5878 0
      vertex 13.089 10.5878 1.6
    endloop
  endfacet
  facet normal 0.866025 0.5 0
    outer loop
      vertex 13.089 10.5878 0
      vertex 13.1935 10.4067 1.6
      vertex 13.1935 10.4067 0
    endloop
  endfacet
  facet normal 0.951057 0.309016 0
    outer loop
      vertex 13.2581 10.2079 1.6
      vertex 13.1935 10.4067 0
      vertex 13.1935 10.4067 1.6
    endloop
  endfacet
  facet normal 0.951057 0.309016 0
    outer loop
      vertex 13.1935 10.4067 0
      vertex 13.2581 10.2079 1.6
      vertex 13.2581 10.2079 0
    endloop
  endfacet
  facet normal 0.406739 0.913545 -0
    outer loop
      vertex 12.78 10.866 0
      vertex 12.589 10.9511 1.6
      vertex 12.78 10.866 1.6
    endloop
  endfacet
  facet normal 0.406739 0.913545 0
    outer loop
      vertex 12.589 10.9511 1.6
      vertex 12.78 10.866 0
      vertex 12.589 10.9511 0
    endloop
  endfacet
  facet normal 0.587787 0.809016 -0
    outer loop
      vertex 12.9491 10.7431 0
      vertex 12.78 10.866 1.6
      vertex 12.9491 10.7431 1.6
    endloop
  endfacet
  facet normal 0.587787 0.809016 0
    outer loop
      vertex 12.78 10.866 1.6
      vertex 12.9491 10.7431 0
      vertex 12.78 10.866 0
    endloop
  endfacet
  facet normal -0.743145 0.66913 0
    outer loop
      vertex 0.190983 10.5878 0
      vertex 0.330869 10.7431 1.6
      vertex 0.330869 10.7431 0
    endloop
  endfacet
  facet normal -0.743145 0.66913 0
    outer loop
      vertex 0.330869 10.7431 1.6
      vertex 0.190983 10.5878 0
      vertex 0.190983 10.5878 1.6
    endloop
  endfacet
  facet normal 0.866025 -0.5 0
    outer loop
      vertex 13.089 0.412214 1.6
      vertex 13.1935 0.593263 0
      vertex 13.1935 0.593263 1.6
    endloop
  endfacet
  facet normal 0.866025 -0.5 0
    outer loop
      vertex 13.1935 0.593263 0
      vertex 13.089 0.412214 1.6
      vertex 13.089 0.412214 0
    endloop
  endfacet
  facet normal 0.406739 -0.913545 0
    outer loop
      vertex 12.589 0.0489426 0
      vertex 12.78 0.133974 1.6
      vertex 12.589 0.0489426 1.6
    endloop
  endfacet
  facet normal 0.406739 -0.913545 0
    outer loop
      vertex 12.78 0.133974 1.6
      vertex 12.589 0.0489426 0
      vertex 12.78 0.133974 0
    endloop
  endfacet
  facet normal -0.743145 -0.66913 0
    outer loop
      vertex 0.330869 0.256855 0
      vertex 0.190983 0.412214 1.6
      vertex 0.190983 0.412214 0
    endloop
  endfacet
  facet normal -0.743145 -0.66913 0
    outer loop
      vertex 0.190983 0.412214 1.6
      vertex 0.330869 0.256855 0
      vertex 0.330869 0.256855 1.6
    endloop
  endfacet
  facet normal -0.587787 -0.809016 0
    outer loop
      vertex 0.330869 0.256855 0
      vertex 0.499999 0.133974 1.6
      vertex 0.330869 0.256855 1.6
    endloop
  endfacet
  facet normal -0.587787 -0.809016 -0
    outer loop
      vertex 0.499999 0.133974 1.6
      vertex 0.330869 0.256855 0
      vertex 0.499999 0.133974 0
    endloop
  endfacet
endsolid OpenSCAD_Model
